<svg xmlns="http://www.w3.org/2000/svg" width="43.871" height="25.069" viewBox="0 0 43.871 25.069">
  <g id="_211661_eye_icon" data-name="211661_eye_icon" transform="translate(-32 -128)">
    <path id="Path_11" data-name="Path 11" d="M53.936,128c-8.02,0-14.268,4.779-21.936,12.535,6.6,6.63,12.143,12.535,21.936,12.535s16.98-7.482,21.936-12.4C70.8,134.914,63.611,128,53.936,128Zm0,21.475a8.942,8.942,0,1,1,8.774-8.941A8.872,8.872,0,0,1,53.936,149.475Z" fill="#101820"/>
    <g id="Group_83" data-name="Group 83" transform="translate(48.814 135.315)">
      <path id="Path_12" data-name="Path 12" d="M208.822,204.786a3.144,3.144,0,0,1,.744-2.027,4.673,4.673,0,0,0-.744-.059,5.22,5.22,0,1,0,5.122,5.219c0-.225-.02-.45-.039-.676a3.137,3.137,0,0,1-5.082-2.458Z" transform="translate(-203.7 -202.7)" fill="#101820"/>
    </g>
  </g>
</svg>
