<svg id="Page-1" xmlns="http://www.w3.org/2000/svg" width="65" height="65" viewBox="0 0 65 65">
  <g id="Core">
    <g id="account-circle">
      <path id="Shape" d="M32.5,0A32.5,32.5,0,1,0,65,32.5,32.6,32.6,0,0,0,32.5,0Zm0,9.75a9.576,9.576,0,0,1,9.75,9.75,9.576,9.576,0,0,1-9.75,9.75,9.576,9.576,0,0,1-9.75-9.75A9.576,9.576,0,0,1,32.5,9.75Zm0,46.15A23.711,23.711,0,0,1,13,45.5C13,39,26,35.425,32.5,35.425S52,39,52,45.5A23.711,23.711,0,0,1,32.5,55.9Z" fill="#303544" fill-rule="evenodd"/>
    </g>
  </g>
</svg>
