<svg xmlns="http://www.w3.org/2000/svg" width="15.03" height="15.028" viewBox="0 0 15.03 15.028">
  <path id="_211830_telephone_icon" data-name="211830_telephone_icon" d="M94.271,91a6.7,6.7,0,0,0-3.556-1.84,1.263,1.263,0,0,0-.7.184,3.821,3.821,0,0,1-1.238.645c-.12,0-.248-.107-.529-.35L88.2,89.6a14.808,14.808,0,0,1-1.251-1.17l-.077-.081c-.055-.055-.1-.107-.149-.154-.265-.273-.457-.47-1.136-1.238l-.03-.034c-.324-.367-.538-.606-.551-.781s.137-.448.517-.965a2.111,2.111,0,0,0,.055-2.284,10.39,10.39,0,0,0-1.375-1.972l-.043-.051a1.843,1.843,0,0,0-1.447-.768,2.563,2.563,0,0,0-1.366.5c-.021.013-.043.03-.064.043A2.74,2.74,0,0,0,80.1,82.055c-.243.79-.406,1.814.76,3.945a19.063,19.063,0,0,0,3.373,4.572,20.378,20.378,0,0,0,3.33,2.835,7.741,7.741,0,0,0,3.979,1.721,2.9,2.9,0,0,0,2.745-1.277C95.4,92.511,94.937,91.691,94.271,91Z" transform="translate(-79.927 -80.1)" fill="#fff"/>
</svg>
