<svg xmlns="http://www.w3.org/2000/svg" width="29.17" height="23.702" viewBox="0 0 29.17 23.702">
  <path id="Path_18" data-name="Path 18" d="M9.174,71.689c11.008,0,17.029-9.12,17.029-17.029,0-.259,0-.517-.017-.774a12.177,12.177,0,0,0,2.986-3.1,11.947,11.947,0,0,1-3.437.942,6.007,6.007,0,0,0,2.631-3.31,12,12,0,0,1-3.8,1.453,5.99,5.99,0,0,0-10.2,5.458A17,17,0,0,1,2.03,49.079a6.014,6.014,0,0,0,1.853,7.989,5.94,5.94,0,0,1-2.716-.749v.076a6,6,0,0,0,4.8,5.867,5.976,5.976,0,0,1-2.7.1A6,6,0,0,0,8.857,66.52a12.012,12.012,0,0,1-7.433,2.567A12.177,12.177,0,0,1,0,69a16.945,16.945,0,0,0,9.174,2.684" transform="translate(0 -47.987)" fill="#fff"/>
</svg>
